<svg id="svg" fill="#000000" stroke="#000000" width="200px" height="200px" version="1.1" viewBox="144 144 512 512" xmlns="http://www.w3.org/2000/svg">
    <g id="IconSvg_bgCarrier" stroke-width="0"></g>
    <g id="IconSvg_tracerCarrier" stroke-linecap="round" stroke-linejoin="round" stroke="#CCCCCC"></g>
     <g id="IconSvg_iconCarrier">
      <g xmlns="http://www.w3.org/2000/svg">
  <path d="m276.06 319.39s61.969 139.55 70.535 154.16c8.5664 14.609 9.5742 29.727 9.5742 29.727l-1.0078 139.55c-55.922 15.617-100.76 0-100.76 0l-1.5117-86.152s-54.914-64.992-90.688-118.39c-5.543-61.969 0.5-107.31 0.5-107.31s26.703-90.688 40.305-111.85c13.098-21.16 29.727-9.5742 29.727 10.078 0 0-23.176 98.746-19.648 105.3 37.281 75.066 44.336 71.539 44.336 71.539s10.078 3.5273 7.5586-12.09c0 0-13.602-47.359-19.648-60.961-7.0547-13.602 16.117-34.762 30.73-13.602z"></path>
  <path d="m637.8 330.98s5.543 45.344 0.50391 107.31c-35.77 53.906-90.688 118.39-90.688 118.39l-1.5117 86.152s-44.84 15.617-100.76 0l-1.0078-139.55s1.5117-15.113 9.5742-29.727c8.5664-14.609 70.535-154.16 70.535-154.16 14.609-21.16 37.785-0.50391 31.738 13.098-6.5508 14.105-20.152 60.961-20.152 60.961-2.5195 16.121 7.5586 12.09 7.5586 12.09s7.5547 4.0312 44.332-71.035c3.0234-6.5508-19.648-105.3-19.648-105.3 0-19.648 16.121-31.234 29.727-10.078 13.098 21.16 39.801 111.85 39.801 111.85z"></path>
  <path d="m512.85 256.92c0.50391 4.0312 0.50391 8.0625 0.50391 12.594 0 45.848-27.207 85.648-67.008 103.28-0.50391-1.5117-1.5117-3.5273-2.0156-6.0469h0.50391s27.207-18.137 29.727-22.168 3.0234-7.5586 3.0234-7.5586c-1.0078-31.738 7.5586-31.738 7.5586-31.738s8.0625-0.50391 9.5742-6.0469c1.0078-5.543-3.5273-11.586-9.5742-14.105-6.0469-2.5195 0.50391-10.578 8.0625-9.5742 8.0625 1.0078 5.543-10.578 5.0391-11.586 0-1.0078-13.098-12.09-13.098-12.09s-4.5352-6.5508 0-5.543c4.5352 1.0078 13.602 9.5742 15.113 11.082 2.5156 2.0195 12.086-0.5 12.59-0.5-0.50391 0-0.50391 0 0 0z"></path>
  <path d="m446.35 372.79c-14.105 6.5508-29.727 9.5742-46.352 9.5742-20.656 0-39.801-5.543-56.426-15.113h1.0078s4.0312-1.0078 12.594-18.641c5.0391-3.0234 9.5742-5.543 12.09-15.113 6.5508-4.5352 7.5586-10.578-1.5117-14.105-9.0703-3.5273-14.609-4.5352-23.176-17.129-8.0625-12.594-15.617-15.617-15.617-16.121 0-0.50391-11.586 1.5117-13.098-2.5195-1.5117-3.5273-1.5117-7.5586-1.5117-7.5586s-5.0391-6.0469-10.078-10.578c-4.5352-4.5352-4.0312-8.0625-1.5117-10.078 2.5195-2.0156 9.0703 2.5195 10.078 7.5586 1.0078 5.0391 4.5352 8.5664 8.0625 5.543 4.0312-3.5273-1.5117-9.0703-1.5117-9.0703s-4.5352-3.5273-3.0234-11.586c2.0156-8.5664 13.098-16.121 17.633-16.625 4.5352-0.50391 5.543-5.0391 6.5508-15.113 1.0078 2.0156 4.5352 3.5273 7.0547 2.0156 10.578-3.0234 1.5117-9.5742 1.5117-9.5742 0-0.007813-18.641-5.0469-14.609-8.0703 4.0312-3.5273 15.617 0.50391 14.105-5.0391-1.0078-5.543-17.129-15.113-17.633-15.617 3.5273-2.0117 6.5508-4.5312 9.5742-6.5469 1.0078 0 3.0234 0.50391 5.0391 0.50391l4.0273 2.0156c14.105 5.0391 14.105 10.078 16.625 17.129 2.5195 7.0547 7.5586 5.543 7.5586 5.543s1.0078 0 4.5352-12.094c6.5508-12.594 14.609-3.0234 22.168-7.5586 7.5547-4.0273 14.609-21.156 14.609-21.156v-0.50391c28.215 3.5273 53.402 17.633 71.039 38.289l-4.0312 3.0234s-4.0312 2.5195-6.0469-0.50391c-2.0156-3.0234-6.5508-12.594-17.129-20.656 0 0-19.145 5.0391-18.137 9.0703 1.0078 4.5352 3.5273 16.121 3.5273 16.121s-3.5273 6.5508-12.594-2.5195c-2.0156-4.0312-17.633-2.5195-17.633 2.5195 0 5.0391 9.0703 6.0469 9.0703 6.0469s8.0625 9.0703 7.0547 11.586c-15.113 4.0312-16.625 1.5117-15.617 8.0625 0.50391 6.0469 8.5664 3.5273 8.5664 3.5273s5.0391 0 16.121-9.0703c15.113-1.5117 19.145 9.0703 19.145 9.0703l14.609 1.0078s8.0625 1.0078 8.0625 5.0391c0.50391 4.0312-9.5742 9.0703-10.078 9.0703-0.50391 0-10.078 1.0078-14.105-0.50391-4.0312-1.5117-16.625-10.578-16.625-10.578s-13.602-2.0156-20.152 6.0469c-6.5508 8.0625-18.137 15.617-19.648 32.242-1.5117 17.129 9.0703 31.738 38.289 26.199 5.0391 2.5195 6.0469 27.711 6.0469 27.711s7.0547 13.098 1.5117 23.176c-2.5195 5.0391-2.5195 10.578-1.5117 14.609-0.011718 3.5156 0.99609 5.5312 1.5 7.043z"></path>
  <path d="m327.95 335.01c6.0469 3.5273 2.5195 19.145 2.0156 22.672-25.695-20.656-42.32-52.395-42.32-88.168 0-3.5273 0-7.5586 0.50391-11.082 3.5273 5.543 17.129 26.199 23.176 31.738 7.0547 6.0469 7.0547 8.0625 5.543 18.137-2.0156 10.582 4.5312 22.672 11.082 26.703z"></path>
 </g>

      </g>
      </svg>